<svg width="18" height="20" viewBox="0 0 18 20" fill="none" xmlns="http://www.w3.org/2000/svg">
<path d="M2.8252 20L4.1752 16.95C3.94186 16.7667 3.71686 16.5875 3.5002 16.4125C3.28353 16.2375 3.0752 16.05 2.8752 15.85C2.74186 15.9 2.6127 15.9375 2.4877 15.9625C2.3627 15.9875 2.2252 16 2.0752 16C1.5252 16 1.05436 15.8042 0.662695 15.4125C0.271029 15.0208 0.0751953 14.55 0.0751953 14C0.0751953 13.6667 0.146029 13.3625 0.287695 13.0875C0.429362 12.8125 0.625195 12.5833 0.875195 12.4C0.741862 12.0167 0.650195 11.6292 0.600195 11.2375C0.550195 10.8458 0.525195 10.4333 0.525195 10C0.525195 9.56667 0.550195 9.15417 0.600195 8.7625C0.650195 8.37083 0.741862 7.98333 0.875195 7.6C0.625195 7.41667 0.429362 7.1875 0.287695 6.9125C0.146029 6.6375 0.0751953 6.33333 0.0751953 6C0.0751953 5.45 0.271029 4.97917 0.662695 4.5875C1.05436 4.19583 1.5252 4 2.0752 4C2.2252 4 2.3627 4.0125 2.4877 4.0375C2.6127 4.0625 2.74186 4.1 2.8752 4.15C3.4252 3.55 4.05436 3.05 4.7627 2.65C5.47103 2.25 6.2252 1.95 7.0252 1.75C7.10853 1.25 7.3377 0.833333 7.7127 0.5C8.0877 0.166667 8.5252 0 9.0252 0C9.5252 0 9.9627 0.170833 10.3377 0.5125C10.7127 0.854167 10.9419 1.26667 11.0252 1.75C11.8252 1.95 12.5794 2.24583 13.2877 2.6375C13.996 3.02917 14.6252 3.51667 15.1752 4.1C15.3085 4.05 15.4335 4.0125 15.5502 3.9875C15.6669 3.9625 15.7919 3.95 15.9252 3.95C16.4752 3.95 16.946 4.14583 17.3377 4.5375C17.7294 4.92917 17.9252 5.4 17.9252 5.95C17.9252 6.28333 17.8585 6.57917 17.7252 6.8375C17.5919 7.09583 17.4085 7.31667 17.1752 7.5C17.3085 7.9 17.4002 8.30833 17.4502 8.725C17.5002 9.14167 17.5252 9.56667 17.5252 10C17.5252 10.4333 17.5002 10.8542 17.4502 11.2625C17.4002 11.6708 17.3085 12.0667 17.1752 12.45C17.4085 12.6333 17.5919 12.8542 17.7252 13.1125C17.8585 13.3708 17.9252 13.6667 17.9252 14C17.9252 14.55 17.7294 15.0208 17.3377 15.4125C16.946 15.8042 16.4752 16 15.9252 16C15.7919 16 15.6669 15.9875 15.5502 15.9625C15.4335 15.9375 15.3085 15.9 15.1752 15.85C14.9752 16.05 14.771 16.2458 14.5627 16.4375C14.3544 16.6292 14.1252 16.8167 13.8752 17L15.1752 20H13.3252L12.3752 17.8C12.1419 17.9 11.9169 17.9875 11.7002 18.0625C11.4835 18.1375 11.2585 18.2 11.0252 18.25C10.9419 18.7333 10.7127 19.1458 10.3377 19.4875C9.9627 19.8292 9.5252 20 9.0252 20C8.5252 20 8.0877 19.8333 7.7127 19.5C7.3377 19.1667 7.10853 18.75 7.0252 18.25C6.7752 18.2 6.5377 18.1375 6.3127 18.0625C6.0877 17.9875 5.85853 17.9 5.6252 17.8L4.6752 20H2.8252ZM4.7252 15.65L6.2752 12.15C6.04186 11.85 5.85853 11.5167 5.7252 11.15C5.59186 10.7833 5.5252 10.4 5.5252 10C5.5252 9.05 5.87103 8.22917 6.5627 7.5375C7.25436 6.84583 8.0752 6.5 9.0252 6.5C9.97519 6.5 10.796 6.84583 11.4877 7.5375C12.1794 8.22917 12.5252 9.05 12.5252 10C12.5252 10.4 12.4544 10.7917 12.3127 11.175C12.171 11.5583 11.9752 11.9 11.7252 12.2L13.2752 15.65C13.4252 15.5167 13.571 15.3958 13.7127 15.2875C13.8544 15.1792 13.9919 15.05 14.1252 14.9C14.0419 14.7667 13.9877 14.6208 13.9627 14.4625C13.9377 14.3042 13.9252 14.15 13.9252 14C13.9252 13.4667 14.1085 13.0083 14.4752 12.625C14.8419 12.2417 15.2919 12.0333 15.8252 12C15.9252 11.6667 16.0002 11.3375 16.0502 11.0125C16.1002 10.6875 16.1252 10.35 16.1252 10C16.1252 9.65 16.1002 9.30417 16.0502 8.9625C16.0002 8.62083 15.9252 8.28333 15.8252 7.95C15.2919 7.91667 14.8419 7.70833 14.4752 7.325C14.1085 6.94167 13.9252 6.48333 13.9252 5.95C13.9252 5.8 13.946 5.65417 13.9877 5.5125C14.0294 5.37083 14.0752 5.23333 14.1252 5.1C13.6419 4.61667 13.1085 4.20833 12.5252 3.875C11.9419 3.54167 11.3252 3.28333 10.6752 3.1C10.4919 3.38333 10.2585 3.60417 9.9752 3.7625C9.69186 3.92083 9.3752 4 9.0252 4C8.67519 4 8.35853 3.92083 8.0752 3.7625C7.79186 3.60417 7.55853 3.38333 7.3752 3.1C6.69186 3.28333 6.05853 3.54583 5.4752 3.8875C4.89186 4.22917 4.35853 4.65 3.8752 5.15C3.9252 5.28333 3.97103 5.42083 4.0127 5.5625C4.05436 5.70417 4.0752 5.85 4.0752 6C4.0752 6.53333 3.9002 6.9875 3.5502 7.3625C3.2002 7.7375 2.75853 7.95 2.2252 8C2.1252 8.33333 2.0502 8.6625 2.0002 8.9875C1.9502 9.3125 1.9252 9.65 1.9252 10C1.9252 10.35 1.9502 10.6875 2.0002 11.0125C2.0502 11.3375 2.1252 11.6667 2.2252 12C2.75853 12.0333 3.2002 12.2417 3.5502 12.625C3.9002 13.0083 4.0752 13.4667 4.0752 14C4.0752 14.15 4.0627 14.2958 4.0377 14.4375C4.0127 14.5792 3.95853 14.7167 3.8752 14.85C4.00853 15 4.14603 15.1375 4.2877 15.2625C4.42936 15.3875 4.5752 15.5167 4.7252 15.65ZM6.2252 16.5C6.40853 16.5833 6.59603 16.6583 6.7877 16.725C6.97936 16.7917 7.1752 16.85 7.3752 16.9C7.55853 16.6167 7.79186 16.3958 8.0752 16.2375C8.35853 16.0792 8.67519 16 9.0252 16C9.3752 16 9.69186 16.0792 9.9752 16.2375C10.2585 16.3958 10.4919 16.6167 10.6752 16.9C10.8752 16.85 11.0627 16.7917 11.2377 16.725C11.4127 16.6583 11.5919 16.5833 11.7752 16.5L10.3252 13.25C10.1252 13.3333 9.91686 13.3958 9.7002 13.4375C9.48353 13.4792 9.25853 13.5 9.0252 13.5C8.7752 13.5 8.5377 13.475 8.3127 13.425C8.0877 13.375 7.8752 13.3 7.6752 13.2L6.2252 16.5ZM9.0252 11.5C9.42519 11.5 9.7752 11.3583 10.0752 11.075C10.3752 10.7917 10.5252 10.4333 10.5252 10C10.5252 9.6 10.3752 9.25 10.0752 8.95C9.7752 8.65 9.42519 8.5 9.0252 8.5C8.59186 8.5 8.23353 8.65 7.9502 8.95C7.66686 9.25 7.5252 9.6 7.5252 10C7.5252 10.4333 7.66686 10.7917 7.9502 11.075C8.23353 11.3583 8.59186 11.5 9.0252 11.5Z" fill="#FFCC00"/>
</svg>
