<svg width="23" height="23" viewBox="0 0 23 23" fill="none" xmlns="http://www.w3.org/2000/svg">
<path d="M13.5225 1.14746C12.1749 1.14746 10.8825 1.68279 9.92963 2.63569C8.97674 3.58858 8.44141 4.88098 8.44141 6.22858C8.44141 10.2051 12.3207 14.9901 13.337 16.1654C13.3915 16.228 13.4687 16.2664 13.5515 16.2722C13.6343 16.278 13.716 16.2507 13.7788 16.1964L13.8097 16.1654C14.8127 14.9857 18.6036 10.2051 18.6036 6.22858C18.6036 5.56132 18.4722 4.90059 18.2169 4.28412C17.9615 3.66765 17.5872 3.10751 17.1154 2.63569C16.6436 2.16386 16.0835 1.78959 15.467 1.53424C14.8505 1.27889 14.1898 1.14746 13.5225 1.14746ZM13.5225 8.37829C13.0292 8.37829 12.5469 8.23199 12.1367 7.95791C11.7265 7.68383 11.4068 7.29427 11.218 6.83848C11.0293 6.3827 10.9799 5.88117 11.0761 5.39731C11.1723 4.91346 11.4099 4.46901 11.7588 4.12016C12.1076 3.77132 12.552 3.53376 13.0359 3.43751C13.5198 3.34127 14.0213 3.39067 14.4771 3.57946C14.9329 3.76825 15.3224 4.08796 15.5965 4.49815C15.8706 4.90834 16.0169 5.3906 16.0169 5.88394V5.89029C16.0153 6.55077 15.7517 7.18365 15.2841 7.6501C14.8165 8.11656 14.183 8.37829 13.5225 8.37829Z" stroke="#FFCC00" stroke-width="1.25" stroke-linecap="round" stroke-linejoin="round"/>
<path d="M18.5054 7.38094L19.1663 7.33594L21.9062 20.841L16.2115 21.8524L7.25931 20.9063L1.09375 21.8524L2.75763 7.98844L7.81394 7.33594L8.539 7.37194" stroke="#FFCC00" stroke-width="1.25" stroke-linecap="round" stroke-linejoin="round"/>
<path d="M7.81414 7.33594L7.45312 20.927" stroke="#FFCC00" stroke-width="1.25" stroke-linecap="round" stroke-linejoin="round"/>
<path d="M16.212 21.8533L15.25 14.3027" stroke="#FFCC00" stroke-width="1.25" stroke-linecap="round" stroke-linejoin="round"/>
</svg>
