<svg width="21" height="25" viewBox="0 0 21 25" fill="none" xmlns="http://www.w3.org/2000/svg">
<path d="M10.5 0.125C4.93125 0.125 0.9375 4.68125 0.9375 10.25C0.9375 15.8187 7.40625 22.2313 9.7125 24.5375C9.81262 24.6466 9.93432 24.7337 10.0699 24.7933C10.2054 24.8529 10.3519 24.8837 10.5 24.8837C10.6481 24.8837 10.7946 24.8529 10.9301 24.7933C11.0657 24.7337 11.1874 24.6466 11.2875 24.5375C13.5938 22.2313 20.0625 15.9313 20.0625 10.25C20.0625 4.56875 16.0687 0.125 10.5 0.125ZM13.7063 9.51875L12.525 10.6438L12.8063 12.3875C12.8135 12.4917 12.7943 12.596 12.7503 12.6908C12.7064 12.7856 12.6391 12.8676 12.5549 12.9294C12.4707 12.9912 12.3722 13.0306 12.2686 13.0441C12.165 13.0575 12.0597 13.0445 11.9625 13.0062L10.5 11.9375L9.0375 13.0062C8.9403 13.0445 8.835 13.0575 8.73141 13.0441C8.62783 13.0306 8.52933 12.9912 8.4451 12.9294C8.36087 12.8676 8.29365 12.7856 8.2497 12.6908C8.20575 12.596 8.1865 12.4917 8.19375 12.3875L8.475 10.6438L7.29375 9.51875C7.22276 9.43754 7.17424 9.33918 7.15299 9.23342C7.13174 9.12767 7.13851 9.0182 7.17262 8.91587C7.20673 8.81354 7.267 8.72191 7.34745 8.65005C7.4279 8.5782 7.52573 8.52863 7.63125 8.50625L9.2625 8.28125L9.99375 6.65C10.0398 6.5549 10.1117 6.47469 10.2013 6.41857C10.2908 6.36245 10.3943 6.33269 10.5 6.33269C10.6057 6.33269 10.7092 6.36245 10.7987 6.41857C10.8883 6.47469 10.9602 6.5549 11.0062 6.65L11.7375 8.28125L13.3688 8.50625C13.4743 8.52863 13.5721 8.5782 13.6526 8.65005C13.733 8.72191 13.7933 8.81354 13.8274 8.91587C13.8615 9.0182 13.8683 9.12767 13.847 9.23342C13.8258 9.33918 13.7772 9.43754 13.7063 9.51875Z" fill="#FFCC00"/>
</svg>
