<?xml version="1.0" encoding="UTF-8"?>
<svg version="1.1" xmlns="http://www.w3.org/2000/svg" width="50" height="50">
<path d="M0 0 C2.91414339 0.49624906 4.87092114 1.5103578 7.15625 3.3671875 C8.68891582 6.43251914 8.25901471 9.63473022 8.21875 12.9921875 C8.21423828 13.69859375 8.20972656 14.405 8.20507812 15.1328125 C8.19328875 16.87764025 8.17535324 18.6224245 8.15625 20.3671875 C7.49625 20.3671875 6.83625 20.3671875 6.15625 20.3671875 C5.82625 22.6771875 5.49625 24.9871875 5.15625 27.3671875 C5.92710938 27.76550781 6.69796875 28.16382812 7.4921875 28.57421875 C8.99652344 29.36892578 8.99652344 29.36892578 10.53125 30.1796875 C11.52898438 30.70175781 12.52671875 31.22382813 13.5546875 31.76171875 C16.15625 33.3671875 16.15625 33.3671875 18.15625 36.3671875 C18.3515625 39.28515625 18.3515625 39.28515625 18.28125 42.5546875 C18.26320312 43.64136719 18.24515625 44.72804687 18.2265625 45.84765625 C18.20335937 46.67910156 18.18015625 47.51054688 18.15625 48.3671875 C17.49625 48.3671875 16.83625 48.3671875 16.15625 48.3671875 C16.05828125 47.60792969 15.9603125 46.84867188 15.859375 46.06640625 C15.70984375 45.07253906 15.5603125 44.07867187 15.40625 43.0546875 C15.26703125 42.06855469 15.1278125 41.08242188 14.984375 40.06640625 C13.99620424 36.84552893 13.03929315 36.01692886 10.15625 34.3671875 C8.67125 33.8721875 8.67125 33.8721875 7.15625 33.3671875 C6.82625 34.0271875 6.49625 34.6871875 6.15625 35.3671875 C5.49625 35.3671875 4.83625 35.3671875 4.15625 35.3671875 C0.49122537 27.57901016 0.49122537 27.57901016 1.15625 23.3671875 C1.65511719 22.62339844 2.15398438 21.87960938 2.66796875 21.11328125 C4.44806843 17.82874036 4.46590061 15.75992266 4.34375 12.0546875 C4.31667969 10.98605469 4.28960938 9.91742188 4.26171875 8.81640625 C4.20951172 7.60404297 4.20951172 7.60404297 4.15625 6.3671875 C3.16625 6.0371875 2.17625 5.7071875 1.15625 5.3671875 C1.15625 4.7071875 1.15625 4.0471875 1.15625 3.3671875 C-3.85910052 3.69678966 -3.85910052 3.69678966 -7.84375 6.3671875 C-8.20255863 9.09274096 -8.20255863 9.09274096 -8.15625 12.1796875 C-8.17300781 13.21738281 -8.18976562 14.25507813 -8.20703125 15.32421875 C-7.80021993 18.73181034 -6.6496926 20.49977332 -4.84375 23.3671875 C-5.07840175 27.74735354 -6.03325639 31.38410156 -7.84375 35.3671875 C-8.50375 35.3671875 -9.16375 35.3671875 -9.84375 35.3671875 C-10.17375 34.7071875 -10.50375 34.0471875 -10.84375 33.3671875 C-14.96009282 35.07796683 -14.96009282 35.07796683 -18.15625 38.0546875 C-19.17010932 41.46494159 -19.48975551 44.82724262 -19.84375 48.3671875 C-20.50375 48.3671875 -21.16375 48.3671875 -21.84375 48.3671875 C-22.6212878 37.5334942 -22.6212878 37.5334942 -19.84375 33.3671875 C-16.31117557 31.01213788 -12.72045614 29.08909916 -8.84375 27.3671875 C-9.81151098 23.57170829 -9.81151098 23.57170829 -11.84375 20.3671875 C-12.05173937 17.93074054 -12.16819728 15.55750524 -12.21875 13.1171875 C-12.25613281 12.44816406 -12.29351562 11.77914063 -12.33203125 11.08984375 C-12.40031238 7.2281667 -11.95741002 5.51688606 -9.6015625 2.4140625 C-6.04295701 -0.22716877 -4.26078656 -0.24144457 0 0 Z " fill="#FFCB00" transform="translate(26.84375,0.6328125)"/>
<path d="M0 0 C1.18529297 0.02707031 1.18529297 0.02707031 2.39453125 0.0546875 C2.98621094 0.07789063 3.57789063 0.10109375 4.1875 0.125 C4.1875 0.785 4.1875 1.445 4.1875 2.125 C5.5075 2.125 6.8275 2.125 8.1875 2.125 C8.1875 6.085 8.1875 10.045 8.1875 14.125 C2.2475 14.125 -3.6925 14.125 -9.8125 14.125 C-9.8125 10.165 -9.8125 6.205 -9.8125 2.125 C-5.63607344 0.45442937 -4.14354148 -0.12368781 0 0 Z M-7.8125 5.125 C-7.85504356 7.12454746 -7.85330783 9.12541636 -7.8125 11.125 C-6.73080354 12.43047755 -6.73080354 12.43047755 -4.125 12.2578125 C-3.031875 12.25523438 -1.93875 12.25265625 -0.8125 12.25 C0.280625 12.25257812 1.37375 12.25515625 2.5 12.2578125 C5.10580354 12.43047755 5.10580354 12.43047755 6.1875 11.125 C6.22830783 9.12541636 6.23004356 7.12454746 6.1875 5.125 C0.8814046 2.76673538 -2.5064046 2.76673538 -7.8125 5.125 Z " fill="#FFCC00" transform="translate(25.8125,34.875)"/>
<path d="M0 0 C1.98 0 3.96 0 6 0 C6 1.98 6 3.96 6 6 C4.02 6 2.04 6 0 6 C0 4.02 0 2.04 0 0 Z " fill="#FFCC00" transform="translate(22,40)"/>
</svg>
