<svg width="26" height="24" viewBox="0 0 26 24" fill="none" xmlns="http://www.w3.org/2000/svg">
<path d="M22.0238 2.57179C21.9572 2.17054 21.7382 1.81929 21.4072 1.58267C21.0766 1.34611 20.6735 1.25261 20.272 1.31911L14.8597 2.21823L14.6167 1.73048C14.4444 1.38479 14.1478 1.12692 13.7816 1.00429C13.4153 0.881607 13.0232 0.908982 12.6775 1.08129L8.16474 3.33036L6.87762 3.54417C6.30205 3.63986 5.85574 4.04886 5.68281 4.56729L1.37312 6.71517C0.659555 7.07073 0.368305 7.94061 0.72393 8.65423L7.50912 22.2689C7.68143 22.6145 7.97799 22.8725 8.34424 22.995C8.49505 23.0456 8.65018 23.0706 8.80462 23.0706C9.02543 23.0706 9.24487 23.0195 9.44824 22.918L9.89062 22.6976C9.94587 22.6945 10.0012 22.6894 10.0566 22.6803L23.4509 20.4552C23.8522 20.3885 24.2035 20.1695 24.4401 19.8387C24.6767 19.5078 24.7702 19.1047 24.7036 18.7034L22.0238 2.57179ZM13.0539 1.83648C13.1386 1.79423 13.23 1.77292 13.322 1.77292C13.3863 1.77292 13.4509 1.78336 13.5137 1.80442C13.6662 1.85548 13.7899 1.96286 13.8615 2.10686L13.9892 2.36286L11.0019 2.85911L13.0539 1.83648ZM8.61218 22.195C8.45962 22.1439 8.33612 22.0365 8.26431 21.8925L1.47912 8.27798C1.33099 7.98073 1.45231 7.61842 1.74949 7.47029L5.66224 5.52029L5.78049 6.23192L3.05887 7.58829C2.53349 7.85011 2.31906 8.49067 2.58087 9.01611L7.40837 18.7025C7.52418 18.9349 7.71405 19.1062 7.9353 19.2027L8.30493 21.4275C8.35468 21.7269 8.48931 21.9983 8.69174 22.2152C8.66499 22.21 8.63837 22.2038 8.61218 22.195ZM23.7538 19.3479C23.6482 19.4954 23.4916 19.593 23.3126 19.6227L12.4342 21.4299L9.9183 21.8478C9.84574 21.8599 9.77312 21.8595 9.70243 21.8487C9.59893 21.8326 9.49974 21.793 9.41206 21.7304C9.26449 21.6249 9.16687 21.4682 9.13718 21.2892L8.79012 19.2L8.64599 18.3324L6.71499 6.70873L6.57037 5.83811L6.4573 5.15767C6.45555 5.14698 6.45487 5.13636 6.45362 5.12567C6.41143 4.76823 6.65718 4.43604 7.01587 4.37648L8.42749 4.14198L10.7467 3.75673L13.6761 3.27004L14.3829 3.15267L15.2535 3.00811L20.4102 2.15142C20.448 2.14517 20.4856 2.14204 20.5231 2.14204C20.6634 2.14204 20.8001 2.18561 20.9165 2.26886C21.0641 2.37436 21.1617 2.53104 21.1914 2.71004L23.8712 18.8415C23.901 19.0205 23.8592 19.2003 23.7538 19.3479Z" fill="#FFCC00"/>
<path d="M22.527 15.5059C22.527 15.5054 22.527 15.505 22.5269 15.5046L22.1043 12.9609V12.9608L20.6257 4.05967C20.577 3.76648 20.4169 3.50967 20.1751 3.33673C19.9333 3.16379 19.6386 3.0956 19.3453 3.14417L8.3351 4.97329C8.04185 5.02198 7.78516 5.18198 7.61222 5.42385C7.43929 5.66567 7.37091 5.96029 7.4196 6.25354L8.76229 14.336V14.3362L8.8906 15.1086L9.32616 17.7305C9.41654 18.2745 9.88929 18.6612 10.4235 18.6612C10.4838 18.6612 10.545 18.6563 10.6065 18.6461L16.5751 17.6545L20.6097 16.9843C20.6099 16.9842 20.6102 16.9842 20.6103 16.9842L21.5845 16.8223L21.6168 16.8169C22.2222 16.7164 22.6328 16.1421 22.5322 15.5367L22.527 15.5059ZM21.4463 15.9899L20.6645 16.1198L16.7647 12.8059L17.0291 12.3325L17.6752 12.0792L18.2498 12.2756C18.3836 12.3213 18.531 12.2969 18.6432 12.211L19.1305 11.8369L19.7817 11.8631L21.2958 13.2434L21.6947 15.6437C21.7213 15.8074 21.6102 15.9626 21.4463 15.9899ZM17.508 16.6442L15.2223 17.0239L14.3249 17.173L16.3452 13.5567L19.5747 16.3009L17.508 16.6442ZM9.74004 15.0727L9.59472 14.198C9.59097 14.1755 9.59672 14.1522 9.61035 14.134L10.5915 12.828L11.1667 13.024C11.2111 13.0392 11.257 13.0465 11.3028 13.0465C11.392 13.0465 11.4803 13.0182 11.554 12.9637L12.0207 12.6179L12.601 12.7929C12.7288 12.8315 12.8673 12.8072 12.9744 12.7276L13.4408 12.381L14.04 12.5555C14.175 12.5947 14.3211 12.5642 14.4292 12.4736L14.752 12.2027L15.6898 12.9997L13.2595 17.35L10.5472 17.8005C10.3572 17.8319 10.177 17.7032 10.1454 17.5133L9.74004 15.0727ZM8.29854 5.91454C8.34035 5.85604 8.40247 5.81735 8.47335 5.8056L19.4836 3.97654C19.4985 3.9741 19.5135 3.97279 19.5284 3.97279C19.584 3.97279 19.6382 3.99004 19.6843 4.0231C19.7429 4.06485 19.7815 4.12698 19.7933 4.19798L21.0723 11.8978L18.3071 9.37685C18.302 9.37217 18.2963 9.36817 18.291 9.36379C18.2848 9.35873 18.2789 9.35348 18.2725 9.34879C18.266 9.3441 18.2593 9.33992 18.2527 9.33567C18.246 9.33129 18.2393 9.3266 18.2324 9.32267C18.2259 9.31898 18.2192 9.31598 18.2127 9.3126C18.2051 9.30873 18.1977 9.30473 18.1898 9.30135C18.1837 9.29873 18.1775 9.29673 18.1714 9.29448C18.1626 9.29117 18.154 9.28773 18.145 9.28504C18.1397 9.28342 18.1342 9.28235 18.1288 9.28098C18.1189 9.27835 18.109 9.27567 18.0988 9.27385C18.094 9.27298 18.089 9.2726 18.084 9.27192C18.0733 9.27035 18.0626 9.26873 18.0518 9.26798C18.0466 9.2676 18.0413 9.26779 18.0362 9.2676C18.0256 9.26729 18.0151 9.26685 18.0045 9.26735C17.9973 9.2676 17.9902 9.26867 17.983 9.26935C17.9749 9.27017 17.967 9.27048 17.9589 9.27167C17.9583 9.27173 17.9577 9.27198 17.9571 9.27204C17.9565 9.27217 17.9558 9.27217 17.9552 9.27223C17.9472 9.27354 17.9395 9.27573 17.9317 9.27748C17.9245 9.27904 17.9171 9.28029 17.9098 9.28229C17.9018 9.28454 17.8938 9.2876 17.8859 9.29035C17.8788 9.29279 17.8716 9.29479 17.8647 9.2976C17.8566 9.30092 17.8489 9.30492 17.8411 9.30873C17.8346 9.31179 17.828 9.31448 17.8218 9.31785C17.8135 9.32235 17.8057 9.3276 17.7977 9.33267C17.7923 9.33604 17.7867 9.33904 17.7816 9.34267C17.7727 9.34879 17.7645 9.35567 17.7562 9.36242C17.7523 9.3656 17.7482 9.36842 17.7444 9.37167C17.7352 9.37985 17.7265 9.38867 17.7179 9.39767C17.7156 9.40017 17.7129 9.40235 17.7106 9.40498C17.7015 9.41504 17.6929 9.42579 17.6847 9.43685C17.6834 9.43867 17.6818 9.44029 17.6805 9.4421C17.6711 9.45517 17.6624 9.46873 17.6545 9.48292L16.1093 12.2489L12.7042 9.35542C12.6158 9.28042 12.5004 9.2446 12.3852 9.25773C12.3848 9.25779 12.3844 9.25767 12.384 9.25773C12.361 9.26029 12.3388 9.2661 12.3168 9.27229C12.3113 9.27385 12.3053 9.27417 12.2999 9.27598C12.2815 9.28204 12.2643 9.29098 12.247 9.29948C12.2388 9.30342 12.2298 9.3061 12.2218 9.31067C12.2055 9.31992 12.191 9.33192 12.1762 9.34323C12.1684 9.34923 12.1597 9.35385 12.1523 9.36029C12.1346 9.37592 12.119 9.39398 12.104 9.41254C12.1008 9.41648 12.0968 9.41948 12.0938 9.42354L12.0937 9.42367C12.0937 9.42379 12.0936 9.42379 12.0935 9.42392L12.0767 9.44629L9.39772 13.0123L8.25191 6.11517C8.24016 6.04429 8.25672 5.97298 8.29854 5.91454Z" fill="#FFCC00"/>
<path d="M17.8572 7.99117C17.9346 7.99117 18.0131 7.98479 18.092 7.97167C18.4682 7.9091 18.7977 7.70385 19.0196 7.39354C19.2414 7.08323 19.329 6.70523 19.2665 6.32892V6.32898C19.1375 5.55223 18.4013 5.02473 17.624 5.15435C17.2477 5.21685 16.9183 5.4221 16.6965 5.73242C16.4745 6.04267 16.3869 6.42079 16.4493 6.79698C16.5652 7.49498 17.1718 7.99117 17.8572 7.99117ZM17.3827 6.22323C17.4734 6.09629 17.6083 6.01229 17.7622 5.98673C17.7946 5.98129 17.8269 5.97867 17.8592 5.97867C17.98 5.97867 18.0975 6.01617 18.1977 6.08785C18.3246 6.17854 18.4086 6.31335 18.4341 6.46723V6.46735C18.4597 6.62129 18.4238 6.77598 18.3332 6.90285C18.2423 7.02979 18.1076 7.11379 17.9537 7.13929C17.6363 7.19235 17.3344 6.97654 17.2817 6.65879C17.256 6.50485 17.2919 6.3501 17.3827 6.22323Z" fill="#FFCC00"/>
<path d="M10.7944 9.29125C10.8547 9.29125 10.9162 9.28625 10.9782 9.27594L13.8507 8.79881C14.5242 8.68681 14.8144 8.10862 14.753 7.59531C14.7017 7.16731 14.4023 6.75325 13.9091 6.657C13.8153 6.41837 13.6391 6.10375 13.3179 5.87756C12.9685 5.6315 12.542 5.55156 12.0502 5.64087C11.4484 5.74981 11.0167 6.01044 10.7674 6.41544C10.5967 6.69262 10.5488 6.97981 10.5468 7.20931C10.5142 7.21931 10.4806 7.2305 10.4463 7.24287C9.92179 7.43206 9.64348 7.96137 9.78448 8.50119C9.90979 8.98069 10.3191 9.29125 10.7944 9.29125ZM10.7327 8.0365C10.8989 7.97662 11.0417 7.963 11.0415 7.963C11.1684 7.953 11.2839 7.88619 11.3559 7.78137C11.4279 7.67644 11.4487 7.54462 11.4126 7.42269C11.4117 7.41962 11.3305 7.11031 11.4859 6.85787C11.6042 6.66569 11.8447 6.53562 12.2005 6.47112C12.9662 6.33337 13.1401 6.94481 13.1745 7.13244C13.211 7.352 13.411 7.50531 13.6333 7.483L13.6555 7.48119C13.8569 7.46681 13.9049 7.60912 13.9152 7.69556C13.9256 7.78244 13.9132 7.93312 13.7126 7.96644L10.8399 8.44362C10.6745 8.4715 10.6191 8.35781 10.6009 8.28806C10.5827 8.21837 10.5757 8.09325 10.7327 8.0365Z" fill="#FFCC00"/>
<path d="M3.92221 16.8259L2.04046 12.9148C1.93939 12.7049 1.68746 12.6166 1.47733 12.7176C1.26739 12.8185 1.17908 13.0707 1.28008 13.2807L3.16183 17.1918C3.23452 17.3428 3.38527 17.4308 3.54233 17.4308C3.60364 17.4308 3.66596 17.4174 3.72496 17.3891C3.93489 17.2879 4.02321 17.0359 3.92221 16.8259Z" fill="#FFCC00"/>
<path d="M4.57632 18.1039C4.47613 17.8935 4.22425 17.8042 4.014 17.9043C3.80363 18.0046 3.71432 18.2563 3.81457 18.4667L4.0255 18.9096C4.09782 19.0615 4.249 19.1502 4.40669 19.1502C4.4675 19.1502 4.52925 19.137 4.58775 19.1092C4.79813 19.009 4.88744 18.7573 4.78725 18.547L4.57632 18.1039Z" fill="#FFCC00"/>
<path d="M23.6216 7.16349C23.655 7.37055 23.8341 7.51805 24.0375 7.51805C24.0598 7.51805 24.0825 7.51624 24.1053 7.51249C24.3353 7.4753 24.4917 7.25867 24.4544 7.02867L24.3286 6.25111C24.2913 6.02111 24.0755 5.8643 23.8447 5.90211C23.6147 5.93924 23.4585 6.15592 23.4957 6.38592L23.6216 7.16349Z" fill="#FFCC00"/>
<path d="M24.6391 8.4699C24.6019 8.23971 24.3851 8.08315 24.1553 8.12083C23.9253 8.15808 23.769 8.37471 23.8063 8.60465L24.5907 13.45C24.6243 13.6571 24.8033 13.8045 25.0067 13.8045C25.029 13.8045 25.0518 13.8027 25.0746 13.799C25.3046 13.7617 25.4608 13.5451 25.4236 13.3151L24.6391 8.4699Z" fill="#FFCC00"/>
</svg>
