<svg width="29" height="29" viewBox="0 0 29 29" fill="none" xmlns="http://www.w3.org/2000/svg">
<path d="M15.8104 0.424194V2.35263C17.7178 2.35263 19.5047 2.83474 21.1711 3.79896C22.7573 4.74309 24.0222 6.00863 24.9658 7.59557C25.9295 9.26286 26.4114 11.0507 26.4114 12.959H28.3389C28.3389 10.6891 27.7667 8.57988 26.6222 6.63135C25.518 4.74309 24.0222 3.24654 22.1349 2.14171C20.1873 0.996699 18.0792 0.424194 15.8104 0.424194ZM5.84183 3.31685C5.29973 3.31685 4.8279 3.4876 4.42635 3.82909L1.32435 6.99293L1.4147 6.93267C0.912754 7.35451 0.581473 7.8768 0.420851 8.49952C0.280307 9.12225 0.320463 9.72488 0.541317 10.3074C1.10349 11.8743 1.85641 13.4813 2.80006 15.1285C4.12518 17.3985 5.70128 19.4374 7.52835 21.2453C10.4597 24.1982 14.1038 26.5284 18.4606 28.2359H18.4908C19.073 28.4368 19.6553 28.4769 20.2375 28.3564C20.8399 28.2359 21.3719 27.9747 21.8337 27.573L24.8755 24.5297C25.277 24.1279 25.4778 23.6357 25.4778 23.0532C25.4778 22.4506 25.277 21.9484 24.8755 21.5466L20.9302 17.5692C20.5286 17.1674 20.0267 16.9666 19.4244 16.9666C18.822 16.9666 18.3201 17.1674 17.9186 17.5692L16.0212 19.4976C14.4953 18.7745 13.1702 17.8806 12.0458 16.8159C10.9215 15.7312 10.028 14.4154 9.36546 12.8686L11.2929 10.9402C11.7145 10.4983 11.9254 9.97598 11.9254 9.37335C11.9254 8.75062 11.6844 8.24843 11.2026 7.86676L11.2929 7.95715L7.2573 3.82909C6.85575 3.4876 6.38392 3.31685 5.84183 3.31685ZM15.8104 4.28107V6.20951C17.0351 6.20951 18.1595 6.51082 19.1834 7.11346C20.2275 7.7161 21.0507 8.5397 21.653 9.58427C22.2553 10.6088 22.5565 11.7337 22.5565 12.959H24.484C24.484 11.3922 24.0924 9.93581 23.3094 8.58992C22.5264 7.28421 21.4823 6.23964 20.1773 5.45621C18.8321 4.67278 17.3765 4.28107 15.8104 4.28107ZM5.84183 5.24529C5.90206 5.24529 5.97233 5.27542 6.05264 5.33568L9.9979 9.37335C10.018 9.4537 9.9979 9.52401 9.93767 9.58427L7.0766 12.4167L7.28742 13.0193L7.67893 13.863C8.00018 14.546 8.37161 15.2089 8.79324 15.8517C9.3755 16.7556 10.018 17.529 10.7207 18.1718C11.6644 19.0959 12.7987 19.9396 14.1239 20.7029C14.7864 21.0846 15.3486 21.3658 15.8104 21.5466L16.4127 21.8178L19.334 18.895C19.3742 18.8548 19.4043 18.8347 19.4244 18.8347C19.4445 18.8347 19.4746 18.8548 19.5147 18.895L23.5805 22.9628C23.6206 23.003 23.6407 23.0331 23.6407 23.0532C23.6407 23.0532 23.6206 23.0733 23.5805 23.1135L20.5688 26.0965C20.1271 26.4782 19.6452 26.5786 19.1232 26.3978C15.0274 24.8109 11.6142 22.6414 8.88359 19.8894C7.19707 18.202 5.72136 16.2836 4.45646 14.1342C3.55297 12.5874 2.85025 11.0909 2.34831 9.64453V9.6144C2.268 9.43361 2.25796 9.22269 2.31819 8.98163C2.37842 8.72049 2.48885 8.51961 2.64947 8.379L5.63101 5.33568C5.69124 5.27542 5.76151 5.24529 5.84183 5.24529ZM15.8104 8.13794V10.0664C16.6135 10.0664 17.2961 10.3476 17.8583 10.9101C18.4205 11.4725 18.7016 12.1555 18.7016 12.959H20.629C20.629 12.0953 20.4082 11.2917 19.9665 10.5485C19.5448 9.80524 18.9626 9.22269 18.2197 8.80084C17.4768 8.35891 16.6737 8.13794 15.8104 8.13794Z" fill="black"/>
</svg>
