<svg width="13" height="10" viewBox="0 0 13 10" fill="none" xmlns="http://www.w3.org/2000/svg">
<g clip-path="url(#clip0_31_2141)">
<path d="M10.299 3.89218C10.299 4.36801 9.91899 4.74932 9.44568 4.74932C8.97105 4.74932 8.58854 4.36676 8.58854 3.89218C8.58854 3.41759 8.97105 3.03503 9.44568 3.03503C9.91899 3.03503 10.299 3.41634 10.299 3.89218ZM7.25139 3.89218C7.25139 4.36801 6.87139 4.74932 6.39802 4.74932C5.92346 4.74932 5.5409 4.36676 5.5409 3.89218C5.5409 3.41759 5.92346 3.03503 6.39802 3.03503C6.87139 3.03503 7.25139 3.41634 7.25139 3.89218ZM4.01709 7.13029C4.01709 7.01337 4.07339 6.88989 4.21692 6.75749C4.3624 6.62331 4.57757 6.50023 4.838 6.39601C5.35933 6.18739 5.98992 6.08265 6.39802 6.08265C6.80619 6.08265 7.43676 6.18739 7.95808 6.39601C8.21854 6.50023 8.43368 6.62331 8.57916 6.75749C8.72271 6.88989 8.77899 7.01337 8.77899 7.13029V7.79691H4.01709V7.13029ZM10.1123 7.13029C10.1123 6.7272 9.98065 6.38566 9.77265 6.10066C10.1496 6.13878 10.6092 6.23735 11.0057 6.39601C11.2661 6.50023 11.4813 6.62331 11.6268 6.75749C11.7703 6.88989 11.8266 7.01337 11.8266 7.13029V7.79691H10.1123V7.13029Z" stroke="black" stroke-width="0.571429"/>
<path d="M2.30545 3.70187C2.30545 4.1777 2.68544 4.55901 3.15879 4.55901C3.63337 4.55901 4.01593 4.17645 4.01593 3.70187C4.01593 3.22729 3.63337 2.84473 3.15879 2.84473C2.68544 2.84473 2.30545 3.22604 2.30545 3.70187ZM2.49212 6.93998C2.49212 6.5369 2.62377 6.19536 2.83182 5.91036C2.45487 5.94848 1.99522 6.04705 1.59875 6.2057C1.33831 6.30992 1.12314 6.43304 0.977662 6.56718C0.834137 6.69958 0.777832 6.82307 0.777832 6.93998V7.60661H2.49212V6.93998Z" stroke="black" stroke-width="0.571429"/>
</g>
<defs>
<clipPath id="clip0_31_2141">
<rect width="12" height="9.14286" fill="white" transform="translate(0.492676 0.844727)"/>
</clipPath>
</defs>
</svg>
