<svg width="23" height="23" viewBox="0 0 23 23" fill="none" xmlns="http://www.w3.org/2000/svg">
<path d="M12.6055 10.4099V10.376C12.5985 10.3874 12.591 10.3989 12.5835 10.4099H12.6055Z" fill="white"/>
<path d="M21.0695 0.51709H2.49573C1.60673 0.51709 0.885742 1.22088 0.885742 2.08827V20.8794C0.885742 21.7463 1.60673 22.4501 2.49573 22.4501H21.0695C21.9598 22.4501 22.6808 21.7459 22.6808 20.8794V2.08827C22.6808 1.22044 21.9593 0.51709 21.0695 0.51709ZM7.49194 18.8778H4.20008V8.97404H7.49194V18.8778ZM5.84623 7.62114H5.82418C4.71999 7.62114 4.00562 6.86047 4.00562 5.91017C4.00562 4.93871 4.74204 4.1992 5.86784 4.1992C6.99408 4.1992 7.68685 4.93871 7.70889 5.91017C7.70889 6.86047 6.99364 7.62114 5.84623 7.62114ZM19.3624 18.8778H16.0706V13.5782C16.0706 12.2474 15.5943 11.339 14.4033 11.339C13.494 11.339 12.9525 11.9515 12.7139 12.5433C12.6271 12.7545 12.6059 13.0499 12.6059 13.3463V18.8774H9.31403C9.31403 18.8774 9.35725 9.90185 9.31403 8.9736H12.6059V10.3755C13.0433 9.70076 13.8256 8.73989 15.5732 8.73989C17.7388 8.73989 19.3629 10.1558 19.3629 13.1981L19.3624 18.8778Z" fill="white"/>
</svg>
