<svg width="26" height="26" viewBox="0 0 26 26" fill="none" xmlns="http://www.w3.org/2000/svg">
<g clip-path="url(#clip0_1_1247)">
<g clip-path="url(#clip1_1_1247)">
<path fill-rule="evenodd" clip-rule="evenodd" d="M22.7305 0.458984C24.4163 0.458984 25.7849 1.82764 25.7849 3.51338V22.4046C25.7849 24.0903 24.4163 25.459 22.7305 25.459H17.5319V16.0393H20.7838L21.4026 12.0051H17.5319V9.38706C17.5319 8.2834 18.0726 7.20757 19.8063 7.20757H21.5662V3.773C21.5662 3.773 19.969 3.50044 18.442 3.50044C15.2542 3.50044 13.1706 5.43252 13.1706 8.93032V12.0051H9.62695V16.0393H13.1706V25.459H3.83931C2.15356 25.459 0.784912 24.0903 0.784912 22.4046V3.51338C0.784912 1.82764 2.15352 0.458984 3.83931 0.458984L22.7305 0.458984Z" fill="white"/>
</g>
</g>
<defs>
<clipPath id="clip0_1_1247">
<rect width="25" height="25" fill="white" transform="translate(0.784912 0.458984)"/>
</clipPath>
<clipPath id="clip1_1_1247">
<rect width="25" height="25" fill="white" transform="translate(0.784912 0.458984)"/>
</clipPath>
</defs>
</svg>
