<svg width="28" height="28" viewBox="0 0 28 28" fill="none" xmlns="http://www.w3.org/2000/svg">
<path d="M14 28C17.713 28 21.274 26.525 23.8995 23.8995C26.525 21.274 28 17.713 28 14C28 10.287 26.525 6.72601 23.8995 4.10051C21.274 1.475 17.713 0 14 0C10.287 0 6.72601 1.475 4.10051 4.10051C1.475 6.72601 0 10.287 0 14C0 17.713 1.475 21.274 4.10051 23.8995C6.72601 26.525 10.287 28 14 28ZM15.6275 11.529L13.8775 19.7628C13.755 20.3577 13.9283 20.6955 14.4095 20.6955C14.749 20.6955 15.2618 20.573 15.61 20.265L15.456 20.993C14.9537 21.5985 13.846 22.0395 12.8923 22.0395C11.662 22.0395 11.1388 21.301 11.4783 19.7312L12.7697 13.6623C12.8818 13.1495 12.7803 12.964 12.2675 12.8398L11.4783 12.698L11.6217 12.0312L15.6275 11.529ZM14 9.625C13.5359 9.625 13.0908 9.44063 12.7626 9.11244C12.4344 8.78425 12.25 8.33913 12.25 7.875C12.25 7.41087 12.4344 6.96575 12.7626 6.63756C13.0908 6.30937 13.5359 6.125 14 6.125C14.4641 6.125 14.9092 6.30937 15.2374 6.63756C15.5656 6.96575 15.75 7.41087 15.75 7.875C15.75 8.33913 15.5656 8.78425 15.2374 9.11244C14.9092 9.44063 14.4641 9.625 14 9.625Z" fill="#E4322C"/>
</svg>
