<svg width="26" height="26" viewBox="0 0 26 26" fill="none" xmlns="http://www.w3.org/2000/svg">
<g clip-path="url(#clip0_1_1278)">
<g clip-path="url(#clip1_1_1278)">
<path fill-rule="evenodd" clip-rule="evenodd" d="M22.9305 0.458984C24.6163 0.458984 25.9849 1.82764 25.9849 3.51338V22.4046C25.9849 24.0903 24.6162 25.459 22.9305 25.459H4.03926C2.35352 25.459 0.984863 24.0903 0.984863 22.4046V3.51338C0.984863 1.82764 2.35347 0.458984 4.03926 0.458984L22.9305 0.458984ZM13.4849 4.41406C11.1642 4.41406 10.8732 4.42388 9.96182 4.46548C9.0523 4.50698 8.43115 4.65142 7.8876 4.8627C7.32568 5.08105 6.84917 5.37324 6.37412 5.84824C5.89907 6.32329 5.60688 6.79985 5.38853 7.36172C5.17729 7.90527 5.03286 8.52642 4.99131 9.43594C4.94976 10.3473 4.93994 10.6383 4.93994 12.959C4.93994 15.2796 4.94976 15.5707 4.99131 16.482C5.03286 17.3916 5.17729 18.0127 5.38853 18.5562C5.60688 19.1181 5.89907 19.5947 6.37412 20.0697C6.84917 20.5448 7.32568 20.837 7.8876 21.0553C8.43115 21.2666 9.0523 21.411 9.96182 21.4525C10.8732 21.4941 11.1642 21.5039 13.4849 21.5039C15.8055 21.5039 16.0965 21.4941 17.0079 21.4525C17.9174 21.411 18.5386 21.2666 19.0821 21.0553C19.644 20.837 20.1206 20.5448 20.5956 20.0697C21.0707 19.5947 21.3628 19.1181 21.5812 18.5562C21.7924 18.0127 21.9369 17.3916 21.9784 16.482C22.02 15.5707 22.0298 15.2796 22.0298 12.959C22.0298 10.6383 22.02 10.3473 21.9784 9.43594C21.9369 8.52642 21.7924 7.90527 21.5812 7.36172C21.3628 6.79985 21.0707 6.32329 20.5956 5.84824C20.1206 5.37324 19.644 5.08105 19.0821 4.8627C18.5386 4.65142 17.9174 4.50698 17.0079 4.46548C16.0965 4.42388 15.8055 4.41406 13.4849 4.41406ZM13.4849 5.95371C15.7665 5.95371 16.0367 5.9624 16.9377 6.00352C17.7708 6.04155 18.2233 6.18076 18.5244 6.29771C18.9233 6.45273 19.2079 6.63794 19.5069 6.93691C19.806 7.23594 19.9911 7.52061 20.1461 7.91943C20.2631 8.22056 20.4023 8.673 20.4403 9.5061C20.4814 10.4071 20.4902 10.6774 20.4902 12.959C20.4902 15.2406 20.4814 15.5108 20.4403 16.4119C20.4023 17.245 20.2631 17.6974 20.1461 17.9985C19.9911 18.3974 19.806 18.682 19.5069 18.9811C19.2079 19.2801 18.9233 19.4652 18.5244 19.6203C18.2233 19.7373 17.7708 19.8765 16.9377 19.9145C16.0369 19.9556 15.7666 19.9643 13.4849 19.9643C11.2031 19.9643 10.9329 19.9556 10.032 19.9145C9.19888 19.8765 8.74644 19.7373 8.44531 19.6203C8.04644 19.4652 7.76182 19.2801 7.46279 18.9811C7.16377 18.682 6.97856 18.3974 6.82358 17.9985C6.70659 17.6974 6.56738 17.245 6.52935 16.4119C6.48823 15.5108 6.47954 15.2406 6.47954 12.959C6.47954 10.6774 6.48823 10.4071 6.52935 9.5061C6.56738 8.673 6.70659 8.22056 6.82358 7.91943C6.97856 7.52061 7.16377 7.23594 7.46279 6.93691C7.76182 6.63794 8.04644 6.45273 8.44531 6.29771C8.74644 6.18076 9.19888 6.04155 10.032 6.00352C10.933 5.9624 11.2033 5.95371 13.4849 5.95371ZM13.4849 8.57104C11.0615 8.57104 9.09692 10.5356 9.09692 12.959C9.09692 15.3824 11.0615 17.3469 13.4849 17.3469C15.9083 17.3469 17.8728 15.3824 17.8728 12.959C17.8728 10.5356 15.9083 8.57104 13.4849 8.57104ZM13.4849 15.8073C11.9118 15.8073 10.6366 14.5321 10.6366 12.959C10.6366 11.3859 11.9118 10.1107 13.4849 10.1107C15.058 10.1107 16.3332 11.3859 16.3332 12.959C16.3332 14.5321 15.058 15.8073 13.4849 15.8073ZM19.0716 8.39771C19.0716 8.96401 18.6125 9.42305 18.0461 9.42305C17.4799 9.42305 17.0208 8.96401 17.0208 8.39771C17.0208 7.8314 17.4799 7.37231 18.0461 7.37231C18.6125 7.37231 19.0716 7.8314 19.0716 8.39771Z" fill="white"/>
</g>
</g>
<defs>
<clipPath id="clip0_1_1278">
<rect width="25" height="25" fill="white" transform="translate(0.984863 0.458984)"/>
</clipPath>
<clipPath id="clip1_1_1278">
<rect width="25" height="25" fill="white" transform="translate(0.984863 0.458984)"/>
</clipPath>
</defs>
</svg>
