<svg width="13" height="11" viewBox="0 0 13 11" fill="none" xmlns="http://www.w3.org/2000/svg">
<g clip-path="url(#clip0_31_2149)">
<path fill-rule="evenodd" clip-rule="evenodd" d="M6.5088 0.454702C6.57657 0.486418 6.63365 0.535686 6.67352 0.596888C6.71339 0.65809 6.73445 0.728761 6.7343 0.800843V10.0313C6.73435 10.1033 6.71323 10.1739 6.67333 10.235C6.63344 10.2961 6.57638 10.3453 6.50865 10.377C6.44092 10.4086 6.36524 10.4215 6.29022 10.4141C6.21521 10.4067 6.14389 10.3793 6.08437 10.3351L3.08678 8.10827H1.70074C1.38033 8.10827 1.07306 7.98671 0.846507 7.77033C0.619953 7.55395 0.492676 7.26047 0.492676 6.95446V3.87765C0.492676 3.57165 0.619953 3.27817 0.846507 3.06179C1.07306 2.84541 1.38033 2.72385 1.70074 2.72385H3.08678L6.08437 0.497008C6.14394 0.452812 6.21531 0.425485 6.29035 0.418141C6.36539 0.410797 6.44108 0.422963 6.5088 0.454702ZM5.92893 1.58697L3.47255 3.41229C3.40183 3.46471 3.31483 3.49313 3.2253 3.49305H1.70074C1.59394 3.49305 1.49151 3.53357 1.41599 3.6057C1.34047 3.67783 1.29805 3.77565 1.29805 3.87765V6.95446C1.29805 7.05647 1.34047 7.15429 1.41599 7.22642C1.49151 7.29854 1.59394 7.33906 1.70074 7.33906H3.2253C3.31483 7.33899 3.40183 7.36741 3.47255 7.41983L5.92893 9.24515V1.58697ZM8.77028 2.60693C8.80549 2.58449 8.84499 2.56889 8.88651 2.56103C8.92804 2.55317 8.97078 2.55321 9.01229 2.56114C9.05381 2.56907 9.09328 2.58474 9.12845 2.60724C9.16361 2.62975 9.19379 2.65866 9.21726 2.69231C9.77775 3.4997 10.0767 4.44694 10.0767 5.41567C10.0767 6.3844 9.77775 7.33165 9.21726 8.13903C9.16926 8.20541 9.09588 8.25113 9.01293 8.26635C8.92998 8.28156 8.84409 8.26505 8.77377 8.22037C8.70344 8.17569 8.6543 8.10642 8.63692 8.02747C8.61955 7.94852 8.63533 7.86622 8.68088 7.79828C9.1709 7.09194 9.43222 6.26338 9.43222 5.41606C9.43222 4.56873 9.1709 3.74018 8.68088 3.03384C8.65738 3.00021 8.64105 2.96248 8.63282 2.92282C8.62459 2.88316 8.62463 2.84234 8.63293 2.80269C8.64124 2.76304 8.65764 2.72534 8.68121 2.69176C8.70477 2.65817 8.73504 2.62934 8.77028 2.60693ZM10.7032 0.746999C10.6479 0.684777 10.5689 0.646094 10.4837 0.639458C10.3985 0.632823 10.3141 0.658778 10.2489 0.711616C10.1838 0.764453 10.1433 0.839844 10.1363 0.921202C10.1294 1.00256 10.1566 1.08322 10.2119 1.14545C11.2685 2.33965 11.8481 3.8526 11.8481 5.41606C11.8481 6.97952 11.2685 8.49247 10.2119 9.68667C10.1566 9.74889 10.1294 9.82955 10.1363 9.91091C10.1433 9.99227 10.1838 10.0677 10.2489 10.1205C10.3141 10.1733 10.3985 10.1993 10.4837 10.1927C10.5689 10.186 10.6479 10.1473 10.7032 10.0851C11.8587 8.77967 12.4927 7.12549 12.4927 5.41606C12.4927 3.70662 11.8587 2.05245 10.7032 0.746999Z" fill="black"/>
</g>
<defs>
<clipPath id="clip0_31_2149">
<rect width="12" height="10" fill="white" transform="translate(0.492676 0.416138)"/>
</clipPath>
</defs>
</svg>
