<svg width="10" height="13" viewBox="0 0 10 13" fill="none" xmlns="http://www.w3.org/2000/svg">
<g clip-path="url(#clip0_31_2133)">
<path d="M4.78258 0.416138C2.37011 0.416138 0.418945 2.29414 0.418945 4.61614C0.418945 7.76614 4.78258 12.4161 4.78258 12.4161C4.78258 12.4161 9.14622 7.76614 9.14622 4.61614C9.14622 2.29414 7.19505 0.416138 4.78258 0.416138ZM4.78258 6.11614C4.36926 6.11614 3.97287 5.9581 3.6806 5.6768C3.38833 5.39549 3.22414 5.01396 3.22414 4.61614C3.22414 4.21832 3.38833 3.83678 3.6806 3.55548C3.97287 3.27418 4.36926 3.11614 4.78258 3.11614C5.19591 3.11614 5.5923 3.27418 5.88456 3.55548C6.17683 3.83678 6.34102 4.21832 6.34102 4.61614C6.34102 5.01396 6.17683 5.39549 5.88456 5.6768C5.5923 5.9581 5.19591 6.11614 4.78258 6.11614Z" fill="black"/>
</g>
<defs>
<clipPath id="clip0_31_2133">
<rect width="8.72727" height="12" fill="white" transform="translate(0.418945 0.416138)"/>
</clipPath>
</defs>
</svg>
