<svg width="12" height="13" viewBox="0 0 12 13" fill="none" xmlns="http://www.w3.org/2000/svg">
<g clip-path="url(#clip0_31_2126)">
<path d="M5.78267 2.11408C2.77496 2.11408 0.328125 4.42474 0.328125 7.26512C0.328125 10.1055 2.77498 12.4161 5.78267 12.4161C8.79038 12.4161 11.2372 10.1055 11.2372 7.26512C11.2372 4.42474 8.79036 2.11408 5.78267 2.11408ZM5.78267 11.9193C3.0586 11.9193 0.842108 9.83132 0.842108 7.26512C0.842108 4.69894 3.0586 2.61094 5.78267 2.61094C8.50674 2.61094 10.7232 4.69894 10.7232 7.26512C10.7232 9.83132 8.50674 11.9193 5.78267 11.9193ZM5.76726 7.26512L9.23658 9.86207C8.81553 10.3523 8.28752 10.7464 7.69039 11.0162C7.09326 11.2859 6.44179 11.4246 5.78267 11.4224C3.34129 11.4224 1.35609 9.5574 1.35609 7.26508C1.35609 4.97775 3.33327 3.11582 5.76694 3.10808L5.76726 7.26512ZM5.78267 1.61726C5.17278 1.61689 4.56632 1.70545 3.98376 1.87995V1.20798C3.98376 0.997971 4.07006 0.796563 4.22367 0.648063C4.3773 0.499564 4.58565 0.416138 4.8029 0.416138H6.76467C6.98154 0.416718 7.18931 0.5004 7.34244 0.648836C7.49556 0.797273 7.58156 0.99835 7.58156 1.20798V1.87999C6.999 1.70546 6.39255 1.6169 5.78267 1.61726ZM9.26227 2.67926L9.80516 2.16409C10.0426 1.93865 10.3792 1.89114 10.5575 2.05759L11.1081 2.57275C11.2861 2.73919 11.2366 3.05687 11.0005 3.28232L10.4759 3.77914C10.1266 3.35954 9.71785 2.98932 9.26227 2.67926ZM1.09878 3.76858L0.575482 3.27172C0.338083 3.04628 0.286377 2.73109 0.462085 2.56776L1.0027 2.06222C1.17747 1.89892 1.51157 1.9489 1.74894 2.17435L2.28991 2.68794C1.84347 2.99366 1.44267 3.35726 1.09878 3.76858Z" fill="black"/>
</g>
<defs>
<clipPath id="clip0_31_2126">
<rect width="10.9091" height="12" fill="white" transform="translate(0.328125 0.416138)"/>
</clipPath>
</defs>
</svg>
